Coordinates
version=1
nRows=9
nColumns=24
inDegrees=yes

Units are S.I. units (second, meters, Newtons, ...)
Angles are in degrees.

endheader
time	pelvis_tilt	pelvis_list	pelvis_rotation	pelvis_tx	pelvis_ty	pelvis_tz	hip_flexion_r	hip_adduction_r	hip_rotation_r	knee_angle_r	ankle_angle_r	subtalar_angle_r	mtp_angle_r	hip_flexion_l	hip_adduction_l	hip_rotation_l	knee_angle_l	ankle_angle_l	subtalar_angle_l	mtp_angle_l	lumbar_extension	lumbar_bending	lumbar_rotation
      1.05433333	      5.86350490	     -2.77503894	     -4.13527293	     -0.00550197	      0.98780007	      0.31105497	    -21.85907342	      6.07152343	      0.80434501	     -8.08731706	     12.34802202	     -7.47822169	     -4.29811375	     16.91432752	     -1.58490366	     -4.83108154	      0.50603364	      1.33359790	     -2.09339108	     -0.36617748	     -9.24481427	      5.98987765	      6.75054959
      1.05850000	      5.83445298	     -2.71735507	     -4.19624250	      0.00055127	      0.98725528	      0.31087616	    -21.92104578	      5.94608838	      0.81272270	     -8.59370650	     12.25033009	     -7.51788575	     -4.28862531	     16.86912849	     -1.46676506	     -4.89231804	      0.39462406	      1.23049515	     -2.18685094	     -0.33887917	     -9.17818591	      5.91178164	      6.75630527
      1.06266667	      5.74657501	     -2.63862027	     -4.25962759	      0.00663495	      0.98668288	      0.31068813	    -21.86793203	      5.79858543	      0.77385030	     -9.20847588	     12.27668286	     -7.43993061	     -4.23741253	     16.86682281	     -1.32873724	     -4.85651832	      0.27373487	      0.97880679	     -2.47288854	     -0.24364298	     -9.03705763	      5.78978135	      6.86606532
      1.06683333	      5.69862475	     -2.56521105	     -4.32040919	      0.01274131	      0.98621058	      0.31050076	    -21.84929836	      5.65382916	      0.73453881	     -9.82939020	     12.18252628	     -7.39191307	     -4.17604616	     16.83174633	     -1.19744208	     -4.82963594	      0.07460591	      0.74203039	     -2.77688469	     -0.14221859	     -8.93713042	      5.68683624	      6.93135679
      1.07100000	      5.62691981	     -2.49045691	     -4.37742118	      0.01887361	      0.98576554	      0.31030742	    -21.78486109	      5.51232799	      0.71222249	    -10.48761506	     12.07830463	     -7.37535487	     -4.09904480	     16.83116472	     -1.06832763	     -4.78787664	     -0.19029657	      0.46162416	     -3.11458757	     -0.03221925	     -8.81079817	      5.58889659	      6.99025247
      1.07516667	      5.54159319	     -2.43217308	     -4.42139129	      0.02501336	      0.98535152	      0.31008973	    -21.67910401	      5.39215511	      0.67326107	    -11.19459535	     11.96307486	     -7.33246001	     -3.95340772	     16.84779756	     -0.95388730	     -4.67599939	     -0.49711169	      0.10292379	     -3.60724921	      0.15387985	     -8.65609576	      5.51408655	      7.06096908
      1.07933333	      5.47500469	     -2.34359957	     -4.46392899	      0.03121038	      0.98501170	      0.30988281	    -21.58015542	      5.24158021	      0.64005513	    -11.92034408	     11.78447801	     -7.35272031	     -3.77216460	     16.84305411	     -0.81070500	     -4.59240101	     -0.83839932	     -0.29234750	     -4.04656761	      0.36265979	     -8.51914514	      5.39440432	      7.09893643
      1.08350000	      5.48444180	     -2.21688314	     -4.48891448	      0.03747429	      0.98481268	      0.30963247	    -21.54698991	      5.04115517	      0.52377021	    -12.66283991	     11.51841447	     -7.29750350	     -2.85739426	     16.71486356	     -0.61104649	     -4.42191257	     -1.12023616	     -0.81275086	     -4.64961849	      1.31107127	     -8.46745717	      5.22386361	      7.09032948
      1.08766667	      5.32356162	     -2.14729135	     -4.53293930	      0.04369523	      0.98446576	      0.30944250	    -21.29554552	      4.92759694	      0.57191068	    -13.47891072	     11.28778197	     -7.46236561	     -2.70862474	     16.87248900	     -0.51047923	     -4.43139589	     -1.64363173	     -1.17923795	     -4.91551312	      1.43341724	     -8.21326845	      5.13404341	      7.14488295
